<svg xmlns="http://www.w3.org/2000/svg" viewBox="0 0 100 100" fill="none">
  <!-- Coffee bean shape -->
  <ellipse cx="50" cy="50" rx="38" ry="48" fill="#E21F26"/>
  <!-- Left lobe of the bean crease -->
  <path d="M50 8 C20 20, 18 45, 28 65 C34 78, 42 88, 50 92 C30 85, 12 68, 12 50 C12 30, 28 12, 50 8Z" fill="#C41018"/>
  <!-- Right lobe -->
  <path d="M50 8 C70 12, 88 30, 88 50 C88 68, 72 85, 50 92 C58 88, 66 78, 72 65 C82 45, 80 20, 50 8Z" fill="#C41018"/>
  <!-- White crease line (center) -->
  <path d="M44 12 Q28 35, 35 58 Q40 75, 56 90" stroke="white" stroke-width="7" stroke-linecap="round" fill="none"/>
  <!-- Top oval highlight -->
  <ellipse cx="38" cy="22" rx="10" ry="13" fill="#E21F26" transform="rotate(-25 38 22)"/>
</svg>